<!--?xml version="1.0" standalone="no"?-->
              <svg id="sw-js-blob-svg" viewBox="0 0 100 100" xmlns="http://www.w3.org/2000/svg" version="1.1">
                    <defs> 
                        <linearGradient id="sw-gradient" x1="0" x2="1" y1="1" y2="0">
                            <stop id="stop1" stop-color="rgba(253.15, 124.983, 64.324, 1)" offset="0%"></stop>
                            <stop id="stop2" stop-color="rgba(0, 0, 0, 1)" offset="100%"></stop>
                        </linearGradient>
                    </defs>
                <path fill="url(#sw-gradient)" d="M16.7,-20.5C24.3,-13.5,35,-10.8,38.2,-5C41.3,0.9,36.9,9.8,30.7,14.9C24.4,20,16.3,21.2,9.9,20.8C3.5,20.4,-1.2,18.2,-8.8,18.1C-16.5,18,-27.2,19.9,-31.7,16.3C-36.1,12.6,-34.5,3.4,-30.8,-3.4C-27.2,-10.2,-21.6,-14.7,-16.2,-22C-10.7,-29.3,-5.3,-39.5,-0.4,-39C4.6,-38.5,9.1,-27.4,16.7,-20.5Z" width="100%" height="100%" transform="translate(50 50)" stroke-width="0" style="transition: all 0.3s ease 0s;" stroke="url(#sw-gradient)"></path>
              </svg>